<svg id="visual" viewBox="0 0 900 600" width="900" height="600" xmlns="http://www.w3.org/2000/svg" xmlns:xlink="http://www.w3.org/1999/xlink" version="1.1"><path d="M0 86L21.5 85.8C43 85.7 86 85.3 128.8 79.8C171.7 74.3 214.3 63.7 257.2 66.5C300 69.3 343 85.7 385.8 96.8C428.7 108 471.3 114 514.2 106.3C557 98.7 600 77.3 642.8 69C685.7 60.7 728.3 65.3 771.2 66.3C814 67.3 857 64.7 878.5 63.3L900 62L900 601L878.5 601C857 601 814 601 771.2 601C728.3 601 685.7 601 642.8 601C600 601 557 601 514.2 601C471.3 601 428.7 601 385.8 601C343 601 300 601 257.2 601C214.3 601 171.7 601 128.8 601C86 601 43 601 21.5 601L0 601Z" fill="#0d4530"></path><path d="M0 153L21.5 153.5C43 154 86 155 128.8 168C171.7 181 214.3 206 257.2 210C300 214 343 197 385.8 187.8C428.7 178.7 471.3 177.3 514.2 175.7C557 174 600 172 642.8 172.8C685.7 173.7 728.3 177.3 771.2 188.2C814 199 857 217 878.5 226L900 235L900 601L878.5 601C857 601 814 601 771.2 601C728.3 601 685.7 601 642.8 601C600 601 557 601 514.2 601C471.3 601 428.7 601 385.8 601C343 601 300 601 257.2 601C214.3 601 171.7 601 128.8 601C86 601 43 601 21.5 601L0 601Z" fill="#155f40"></path><path d="M0 270L21.5 276.3C43 282.7 86 295.3 128.8 304.5C171.7 313.7 214.3 319.3 257.2 319.3C300 319.3 343 313.7 385.8 311C428.7 308.3 471.3 308.7 514.2 299.2C557 289.7 600 270.3 642.8 267C685.7 263.7 728.3 276.3 771.2 290.7C814 305 857 321 878.5 329L900 337L900 601L878.5 601C857 601 814 601 771.2 601C728.3 601 685.7 601 642.8 601C600 601 557 601 514.2 601C471.3 601 428.7 601 385.8 601C343 601 300 601 257.2 601C214.3 601 171.7 601 128.8 601C86 601 43 601 21.5 601L0 601Z" fill="#207a50"></path><path d="M0 381L21.5 389.3C43 397.7 86 414.3 128.8 424.7C171.7 435 214.3 439 257.2 434.5C300 430 343 417 385.8 408.8C428.7 400.7 471.3 397.3 514.2 401.8C557 406.3 600 418.7 642.8 419.2C685.7 419.7 728.3 408.3 771.2 404.3C814 400.3 857 403.7 878.5 405.3L900 407L900 601L878.5 601C857 601 814 601 771.2 601C728.3 601 685.7 601 642.8 601C600 601 557 601 514.2 601C471.3 601 428.7 601 385.8 601C343 601 300 601 257.2 601C214.3 601 171.7 601 128.8 601C86 601 43 601 21.5 601L0 601Z" fill="#2e9660"></path><path d="M0 513L21.5 509.2C43 505.3 86 497.7 128.8 501.3C171.7 505 214.3 520 257.2 524.7C300 529.3 343 523.7 385.8 510.5C428.7 497.3 471.3 476.7 514.2 465.8C557 455 600 454 642.8 466.5C685.7 479 728.3 505 771.2 516.2C814 527.3 857 523.7 878.5 521.8L900 520L900 601L878.5 601C857 601 814 601 771.2 601C728.3 601 685.7 601 642.8 601C600 601 557 601 514.2 601C471.3 601 428.7 601 385.8 601C343 601 300 601 257.2 601C214.3 601 171.7 601 128.8 601C86 601 43 601 21.5 601L0 601Z" fill="#3fb26f"></path></svg>